<svg xmlns="http://www.w3.org/2000/svg" viewBox="0 0 500 500"><g id="freepik--background-simple--inject-63"><g><path d="M177.77,42.12c-21.56,2.85-42.36,8.91-60.8,18.41-21.74,11.2-43.95,28.66-37.39,51.49,12.11,42.15,70.21,42.92,58.61,71.26-13.14,32.1-4.33,69.76,54.63,80.23,111.98,19.89,247.35-96.48,209.33-160.43-23.67-39.81-109.88-76.07-224.38-60.96Z" style="fill:#4338CA;"></path><path d="M177.77,42.12c-21.56,2.85-42.36,8.91-60.8,18.41-21.74,11.2-43.95,28.66-37.39,51.49,12.11,42.15,70.21,42.92,58.61,71.26-13.14,32.1-4.33,69.76,54.63,80.23,111.98,19.89,247.35-96.48,209.33-160.43-23.67-39.81-109.88-76.07-224.38-60.96Z" style="fill:#fff; opacity:.9;"></path></g></g><g id="freepik--Shadow--inject-63"><path d="M458.88,460.42c0,3.39-93.52,6.13-208.88,6.13s-208.88-2.75-208.88-6.13,93.52-6.13,208.88-6.13,208.88,2.75,208.88,6.13Z" style="fill:#f5f5f5;"></path></g><g id="freepik--Coffee_cup_2--inject-63"><g><g><path d="M273.64,139.75l-44.64,209.85s23.3,36.85,76.42,42.09c0,0,14.25,2.85,30.76-4.33l92.35-196.74-154.9-50.87Z" style="fill:#4338CA;"></path><path d="M273.64,139.75l-44.64,209.85s23.3,36.85,76.42,42.09c0,0,14.25,2.85,30.76-4.33l92.35-196.74-154.9-50.87Z" style="fill:#fff; opacity:.5;"></path><path d="M290,143.02s15.67,76.74,119.56,89.35l14.28-30.42c-103.89-12.62-124.14-104.5-124.14-104.5" style="fill:#fff; opacity:.5;"></path><path d="M273.01,142.75s32.12,42.12,81.41,54.18c49.29,12.06,72.09-1.96,72.09-1.96l4.8-9.01-158.29-43.22Z" style="opacity:.3;"></path><path d="M439.29,184.28l2.08-17.29-7.74-11.98,4.65-17.43-73.56-22.95-73.73-23.12-5.71,15.31-13.25,5.29-8.33,15.3c4.28,27.75,80.11,51.36,80.11,51.36h0c9.03,3.04,77.01,25.06,95.47,5.52Z" style="fill:#263238;"></path><path d="M285.29,106.82s23.96,24.23,79.09,39.7c55.13,15.47,69.26,8.48,69.26,8.48l4.42-16.57-147.06-46.95-5.71,15.34Z" style="opacity:.3;"></path><path d="M438.06,138.43c-2.68,8.04-38.11,5.58-78.6-7.93-40.49-13.51-71.14-30.98-68.46-39.02s37.68-3.6,78.18,9.91,71.57,29,68.88,37.04Z" style="fill:#263238;"></path><path d="M343.82,178.76h0c9.03,3.04,77.01,25.06,95.47,5.52l1.94-16.17c-11.15,4.35-34.31,7.94-78.41-4.01-77.28-20.94-90.78-51.99-90.78-51.99l-8.33,15.3c4.28,27.75,80.11,51.36,80.11,51.36Z" style="opacity:.3;"></path><ellipse cx="328.98" cy="107.87" rx="3.37" ry="15.19" transform="translate(113.27 378.66) rotate(-69.61)" style="opacity:.3;"></ellipse><path d="M367.33,111.38c28.33,8.85,51.49,18.61,57.78,24.02,.53-.22,.87-.51,.98-.87,1.29-4.11-25.32-16.09-59.43-26.74-34.11-10.66-62.79-15.96-64.08-11.84-.22,.7,.37,1.62,1.65,2.72,5.45-2.25,32.02,3.01,63.1,12.72Z" style="opacity:.3;"></path><path d="M235.1,348.63c24.87,25.88,62.91,42.04,98.68,32.67l-6.62,1.7-6.75,1.11c-32.04,3.54-64.28-11.71-85.32-35.48h0Z"></path><path d="M248.32,258.81l-9.08,42.67c15.48,25.45,45.94,55.43,108.27,63l14.89-31.72c-65.24-7.92-97.67-45.06-114.09-73.96Z" style="fill:#fff; opacity:.5;"></path></g><path d="M259.33,207.06s15.67,76.74,119.56,89.35l14.28-30.42c-103.89-12.62-124.14-104.5-124.14-104.5" style="fill:#fff; opacity:.5;"></path><path d="M285.03,152.19l-52.52,202.08c6.3,8.54,14.68,15.59,24.78,21.41l57.97-207.69c-11.7-5.08-21.92-10.33-30.23-15.8Z" style="fill:#fff; opacity:.5;"></path></g></g><g id="freepik--Coffee_cup_1--inject-63"><g><path d="M82.33,256.58l82.05,198.24s40.07,17.17,86.83-8.59c0,0,13.36-5.72,22.9-20.99l-35.3-214.46-156.48,45.8Z" style="fill:#4338CA;"></path><path d="M83.5,259.41s50.33,16.53,97.78-1.45c47.45-17.97,58.31-42.44,58.31-42.44l-1.15-10.14-154.94,54.03Z" style="opacity:.3;"></path><path d="M244.08,199.47l-8.08-15.43-13.16-5.5-6.04-17-73.62,22.75-73.86,22.7,3.96,15.85-7.93,11.86,1.8,17.32c19.24,20.45,95.11-3.04,95.11-3.04h0c9.17-2.61,77.66-22.96,81.81-49.52Z" style="fill:#263238;"></path><path d="M73.28,222.84s33.47,6.4,87.67-12.07c54.2-18.47,61.89-32.23,61.89-32.23l-5.74-16.16-147.8,44.59,3.98,15.87Z" style="opacity:.3;"></path><path d="M217.09,162.38c2.34,8.15-28.25,26.18-69.27,37.98-41.03,11.8-76.18,14.75-78.52,6.61s29.02-24.31,70.04-36.11c41.03-11.8,75.41-16.62,77.75-8.48Z" style="fill:#263238;"></path><path d="M162.26,248.99h0c9.17-2.61,77.66-22.96,81.81-49.52l-7.56-14.43c-6.73,9.9-23.79,25.98-66.9,41.1-75.55,26.51-104.27,8.56-104.27,8.56l1.8,17.32c19.24,20.45,95.11-3.04,95.11-3.04Z" style="opacity:.3;"></path><path d="M124.61,195.26c.45,1.8-5.78,4.92-13.91,6.97-8.14,2.04-15.1,2.24-15.55,.44s5.78-4.92,13.91-6.97,15.1-2.24,15.55-.44Z" style="opacity:.3;"></path><path d="M143.48,180.13c28.37-8.75,52.98-13.82,61.23-12.92,.31-.48,.43-.91,.31-1.28-1.27-4.12-29.98,1.08-64.12,11.61-34.14,10.53-60.79,22.41-59.52,26.53,.21,.7,1.22,1.13,2.9,1.31,3.22-4.94,28.1-15.65,59.21-25.25Z" style="opacity:.3;"></path><path d="M104,308.92s72.57,13.38,143.61-44.66l10.96,66.56s-53.5,59.11-130.09,37.24l-24.48-59.14Z" style="fill:#fff; opacity:.3;"></path><g><path d="M164.09,346.76l.47-.35c.59-.36,1.01-.54,1.26-.55,.55,0,1.14,.48,1.79,1.45,.4,.61,.6,1.1,.6,1.47s-.11,.68-.34,.93c-.23,.25-.51,.47-.82,.67-.31,.2-.61,.39-.9,.57-.29,.18-.88,.42-1.77,.71-.89,.3-1.76,.45-2.6,.46-.84,.01-1.68-.08-2.54-.29-.86-.21-1.74-.56-2.66-1.07-.91-.5-1.74-1.13-2.47-1.86-.73-.74-1.34-1.69-1.83-2.85-.48-1.16-.74-2.43-.76-3.81-.02-1.37,.19-2.62,.63-3.75,.44-1.12,1.01-2.06,1.71-2.8,.7-.74,1.51-1.37,2.41-1.87,1.71-.98,3.44-1.48,5.18-1.51,.83-.01,1.67,.1,2.53,.34,.86,.24,1.51,.49,1.95,.75l.64,.36c.32,.19,.57,.34,.75,.46,.46,.36,.7,.78,.71,1.24,0,.47-.17,.96-.53,1.48-.67,.96-1.28,1.45-1.83,1.46-.32,0-.77-.18-1.36-.56-.75-.59-1.74-.87-2.97-.85-1.15,.02-2.27,.43-3.36,1.24-.52,.4-.95,.95-1.29,1.66-.34,.71-.5,1.51-.49,2.4,.01,.89,.2,1.68,.57,2.38,.36,.7,.82,1.25,1.37,1.64,1.09,.76,2.21,1.13,3.37,1.11,.55,0,1.06-.09,1.54-.24,.48-.15,.83-.29,1.04-.44Z" style="fill:#fff;"></path><path d="M171.54,338.88c1.18-1.64,2.71-2.64,4.57-3.01,1.87-.37,3.65-.03,5.35,1.03,1.7,1.05,2.75,2.62,3.17,4.69,.28,1.43,.17,2.78-.36,4.04-.52,1.26-1.26,2.26-2.22,3-.96,.74-2.01,1.22-3.15,1.45-1.14,.23-2.3,.17-3.48-.18-1.18-.35-2.25-1-3.2-1.95-.95-.95-1.57-2.12-1.84-3.5-.41-2.07-.03-3.93,1.16-5.56Zm4.63,6.34c.64,.31,1.24,.41,1.81,.3,.57-.11,1.1-.44,1.58-.99,.48-.54,.64-1.24,.47-2.09-.17-.85-.56-1.42-1.18-1.73-.62-.31-1.24-.4-1.86-.28-.62,.12-1.16,.45-1.61,.99-.45,.54-.59,1.23-.43,2.06,.17,.84,.57,1.41,1.2,1.73Z" style="fill:#fff;"></path><path d="M201,328.35c1.14-.43,1.92-.37,2.36,.19,.22,.28,.42,.67,.61,1.18,.19,.51,.29,.94,.3,1.28,0,.35-.08,.63-.26,.85-.27,.33-.74,.62-1.4,.86l-1.62,.5,2.49,6.63c.24,.63,.33,1.12,.29,1.49-.04,.37-.2,.66-.49,.88-.28,.22-.68,.43-1.19,.62-.51,.19-.94,.29-1.28,.3-.35,0-.63-.08-.85-.27-.22-.19-.38-.38-.48-.57-.1-.19-.22-.47-.36-.85l-2.46-6.55c-.77,.35-1.41,.62-1.93,.81l-2.46,.81,2.49,6.63c.24,.63,.33,1.12,.29,1.48-.04,.37-.21,.66-.49,.88-.28,.22-.68,.43-1.19,.62-.51,.19-.94,.29-1.28,.3-.35,0-.63-.08-.85-.27-.22-.19-.38-.38-.48-.57-.1-.19-.22-.47-.36-.85l-2.46-6.55c-.3,.17-.62,.32-.99,.46-.36,.14-.72,.11-1.06-.08-.34-.19-.64-.62-.9-1.3-.25-.68-.4-1.18-.43-1.52-.03-.33,0-.6,.1-.78,.18-.31,.47-.54,.87-.69l.85-.21-.49-1.31c-.48-1.27-.46-2.59,.06-3.96,.52-1.37,1.64-2.38,3.35-3.02,.38-.14,.67-.24,.87-.28,.2-.05,.44-.06,.73-.04,.53,.06,1,.62,1.39,1.68,.3,.79,.37,1.41,.21,1.84-.13,.37-.43,.65-.92,.85-.14,.07-.37,.17-.68,.29-.61,.23-.84,.55-.68,.96l.51,1.36c.87-.4,1.62-.72,2.26-.96l2.11-.68-.49-1.31c-.48-1.27-.46-2.59,.06-3.96,.52-1.37,1.64-2.38,3.35-3.02,.4-.15,.69-.25,.88-.29,.19-.04,.43-.05,.72-.03,.53,.06,1,.62,1.39,1.68,.3,.79,.37,1.41,.21,1.84-.13,.37-.42,.65-.9,.84-.16,.08-.39,.18-.71,.3-.61,.23-.84,.55-.68,.96l.51,1.36,1.55-.75Z" style="fill:#fff;"></path><path d="M218.5,325.23c.51,.95,.65,1.79,.43,2.5-.23,.71-.63,1.22-1.2,1.53l-5.52,2.96c.23,.44,.69,.66,1.36,.68,.67,.02,1.26-.11,1.77-.38,.9-.48,1.56-.96,1.97-1.42l.21-.23c.28-.37,.55-.62,.79-.75,.5-.27,1.11-.15,1.84,.36,.43,.31,.72,.61,.88,.91,.74,1.38-.54,2.96-3.85,4.73-1.15,.62-2.28,.97-3.38,1.05-1.1,.08-2.08-.07-2.93-.45-1.65-.73-2.89-1.88-3.73-3.43-1.05-1.95-1.26-3.86-.62-5.71,.64-1.85,1.9-3.28,3.79-4.3,2.16-1.16,4.15-1.25,5.97-.27,.96,.52,1.7,1.26,2.21,2.22Zm-4.54,3.32c.59-.32,.75-.72,.48-1.22-.19-.36-.48-.57-.87-.64-.39-.07-.84,.03-1.34,.3-.5,.27-.89,.75-1.17,1.42-.28,.68-.29,1.25-.04,1.71l2.93-1.57Z" style="fill:#fff;"></path><path d="M230.96,315.61c.68,.84,.97,1.64,.88,2.38-.09,.74-.39,1.32-.9,1.73l-4.88,3.93c.31,.38,.8,.52,1.46,.42,.66-.1,1.22-.34,1.67-.7,.8-.64,1.35-1.23,1.67-1.75l.16-.26c.21-.42,.42-.71,.64-.89,.44-.35,1.06-.35,1.88,.01,.48,.23,.82,.47,1.03,.73,.98,1.22,.01,3.01-2.91,5.36-1.01,.82-2.06,1.37-3.13,1.66-1.07,.29-2.06,.32-2.96,.1-1.76-.42-3.19-1.31-4.3-2.68-1.39-1.73-1.95-3.56-1.66-5.5s1.26-3.58,2.93-4.93c1.91-1.54,3.85-1.99,5.82-1.37,1.04,.34,1.9,.93,2.58,1.77Zm-3.85,4.11c.52-.42,.6-.85,.25-1.29-.25-.31-.58-.47-.97-.47-.4,0-.82,.18-1.26,.54-.45,.36-.74,.9-.89,1.61-.15,.72-.05,1.28,.28,1.69l2.59-2.09Z" style="fill:#fff;"></path></g><path d="M168.86,450.56c35.15,7.24,75.66-.98,99.83-28.96l-4.49,5.15-4.94,4.74c-24.41,21.06-59.61,26.75-90.41,19.08h0Z"></path></g></g><g id="freepik--Coffee_beans--inject-63"><g><g><path d="M242.15,112.39c.11,.16,10.95,15.06-3.33,29.5-15.81,16-29.08,3.01-29.08,3.01l32.41-32.52Z" style="fill:#4338CA;"></path><path d="M242.15,112.39c.11,.16,10.95,15.06-3.33,29.5-15.81,16-29.08,3.01-29.08,3.01l32.41-32.52Z" style="opacity:.3;"></path><path d="M238.95,109.73s9.17,3,1.62,18.44c-7.55,15.44-18.93,20.16-25.71,18.86-6.77-1.3-5.89-4.69-5.89-4.69,0,0-1.92-.2-2.82-4.93-.9-4.72,.19-15.4,11.16-24.7,9.72-8.24,19.03-8.32,21.65-2.98Z" style="fill:#4338CA;"></path><path d="M238.93,109.59c-1.57,6.55-6.08,12.29-12.37,14.61-1.82,.67-3.73,1.12-5.57,1.87-1.9,.77-3.66,1.98-5.09,3.45-1.41,1.43-2.56,3.18-3.45,4.97-1.33,2.64-2.5,5.35-3.52,8.12,1.55-2.5,2.99-5.05,4.55-7.53,1.44-2.4,3.36-4.63,5.71-6.12,3.2-2.09,7.45-2.36,10.73-4.46,5.15-3.1,8.75-8.97,8.99-14.92h0Z" style="opacity:.3;"></path><g style="opacity:.3;"><path d="M213.99,142.28h-.01c-.58-.33-.73-1.23-.38-2.01,1.17-2.56,3.03-5.26,4.95-6.92,.55-.47,1.14-.92,1.79-.93,.24,0,.47,.06,.65,.22,.6,.5,.43,1.5,.2,2.34-.46,1.67-1.12,3.33-2.11,4.71-.99,1.38-2.34,2.46-3.73,2.72-.47,.09-.96,.08-1.36-.14Z" style="fill:#fff;"></path></g></g><path d="M208.48,139.27c-2.1-7.08,.44-15.34,5.91-20.24-4.35,5.91-6.53,12.89-5.91,20.24h0Z" style="fill:#fff; opacity:.3;"></path><path d="M216.54,116.89c.38-1.3,1.26-2.13,2.58-2.43-.38,1.3-1.26,2.13-2.58,2.43h0Z" style="fill:#fff; opacity:.3;"></path><path d="M225.45,128.2c5.52-1.5,10.06-4.96,12.97-9.88-1.53,5.55-7.22,9.88-12.97,9.88h0Z" style="fill:#fff; opacity:.3;"></path></g><g><g><path d="M195.01,107.03c-.11,.1-11,10.04-23.75-.02-14.12-11.14-4.98-22.85-4.98-22.85l28.73,22.88Z" style="fill:#4338CA;"></path><path d="M195.01,107.03c-.11,.1-11,10.04-23.75-.02-14.12-11.14-4.98-22.85-4.98-22.85l28.73,22.88Z" style="opacity:.3;"></path><path d="M196.83,104.25s-1.57,7.56-14.52,2.92c-12.95-4.63-17.71-13.26-17.28-18.76,.43-5.5,3.21-5.1,3.21-5.1,0,0,0-1.55,3.67-2.68,3.67-1.14,12.26-1.22,20.63,6.67,7.41,6.99,8.31,14.39,4.29,16.95Z" style="fill:#4338CA;"></path><path d="M196.94,104.22c-5.35-.66-10.31-3.74-12.71-8.53-.69-1.39-1.22-2.87-1.98-4.26-.78-1.44-1.9-2.74-3.2-3.74-1.27-1-2.76-1.76-4.26-2.3-2.22-.82-4.47-1.51-6.77-2.08,2.13,1.01,4.28,1.92,6.39,2.95,2.04,.93,3.98,2.26,5.37,4,1.95,2.36,2.54,5.72,4.5,8.14,2.92,3.82,7.9,6.16,12.66,5.82h0Z" style="opacity:.3;"></path><g style="opacity:.3;"><path d="M168.74,87.29h0c.2-.5,.91-.7,1.56-.49,2.14,.7,4.45,1.94,5.94,3.32,.43,.39,.83,.82,.9,1.34,.03,.19,0,.38-.11,.54-.34,.52-1.15,.47-1.85,.36-1.37-.22-2.75-.59-3.93-1.26-1.18-.66-2.16-1.64-2.49-2.72-.11-.37-.15-.75-.01-1.09Z" style="fill:#fff;"></path></g></g><path d="M170.64,82.64c5.4-2.44,12.32-1.13,16.61,2.9-5.17-2.81-10.79-3.9-16.61-2.9h0Z" style="fill:#fff; opacity:.3;"></path><path d="M189.15,87.07c1.15,.08,1.9,.71,2.16,1.84-1.15-.08-1.9-.71-2.16-1.84h0Z" style="fill:#fff; opacity:.3;"></path><path d="M180.95,95.16c1.83,4.22,4.88,7.41,9,9.44-4.6-.57-8.64-4.82-9-9.44h0Z" style="fill:#fff; opacity:.3;"></path></g><g><g><path d="M275.49,76.46c0,.13,.86,12.34-12.27,15.45-14.54,3.44-17.45-8.55-17.45-8.55l29.72-6.89Z" style="fill:#4338CA;"></path><path d="M275.49,76.46c0,.13,.86,12.34-12.27,15.45-14.54,3.44-17.45-8.55-17.45-8.55l29.72-6.89Z" style="opacity:.3;"></path><path d="M274.63,73.84s4.11,4.92-5.59,10.96c-9.7,6.03-17.77,4.68-21.13,1.56-3.36-3.12-1.66-4.72-1.66-4.72,0,0-1.01-.79,.15-3.77,1.16-2.98,5.53-8.61,14.99-9.98,8.38-1.22,13.65,2.02,13.24,5.95Z" style="fill:#4338CA;"></path><path d="M274.66,73.75c-3.19,3.14-7.75,4.78-12.12,3.87-1.26-.26-2.5-.69-3.8-.91-1.34-.24-2.76-.18-4.08,.15-1.3,.31-2.57,.89-3.69,1.58-1.68,1.02-3.29,2.13-4.84,3.33,1.76-.86,3.46-1.79,5.22-2.64,1.66-.84,3.52-1.42,5.37-1.43,2.54-.05,5.03,1.3,7.62,1.27,3.99,.07,8.09-1.97,10.32-5.24h0Z" style="opacity:.3;"></path><g style="opacity:.3;"><path d="M249.1,83.37h0c-.21-.39,.02-.96,.49-1.27,1.56-1.03,3.56-1.89,5.22-2.15,.48-.07,.96-.11,1.33,.11,.14,.08,.24,.2,.29,.35,.16,.49-.29,.99-.72,1.39-.85,.78-1.8,1.48-2.85,1.91s-2.18,.56-3.06,.22c-.3-.12-.57-.29-.72-.56Z" style="fill:#fff;"></path></g></g><path d="M247.05,79.73c1.08-4.82,5.59-8.73,10.46-9.32-4.46,2.04-7.99,5.05-10.46,9.32h0Z" style="fill:#fff; opacity:.3;"></path><path d="M259.48,69.97c.62-.82,1.43-.98,2.31-.46-.62,.82-1.43,.98-2.31,.46h0Z" style="fill:#fff; opacity:.3;"></path><path d="M260.51,79.48c3.74,.87,7.27,.54,10.79-.99-2.67,2.8-7.65,3.26-10.79,.99h0Z" style="fill:#fff; opacity:.3;"></path></g></g></svg>
